<svg xmlns="http://www.w3.org/2000/svg" width="18.06" height="22.094" viewBox="0 0 18.06 22.094">
  <defs>
    <style>
      .cls-1 {
        fill: #fff;
        fill-rule: evenodd;
      }
    </style>
  </defs>
  <path id="Forma_1_copy_5" data-name="Forma 1 copy 5" class="cls-1" d="M1471.48,624.921h0a0.335,0.335,0,0,1-.34-0.332v-7.483a0.334,0.334,0,0,1,.34-0.332h0a0.332,0.332,0,0,1,.33.332v7.483A0.333,0.333,0,0,1,1471.48,624.921Zm0,0a0.347,0.347,0,0,1-.24-0.1l-2.9-2.862a0.331,0.331,0,0,1,0-.469,0.346,0.346,0,0,1,.48,0l2.66,2.627,2.66-2.627a0.332,0.332,0,1,1,.47.469l-2.9,2.862A0.324,0.324,0,0,1,1471.48,624.921Zm7.34,5.644h-14.69a1.675,1.675,0,0,1-1.68-1.658V610.134a1.675,1.675,0,0,1,1.68-1.658h10.67a0.332,0.332,0,1,1,0,.663h-10.67a1.008,1.008,0,0,0-1.01,1v18.773a1.009,1.009,0,0,0,1.01,1h14.69a1,1,0,0,0,1.01-1V614.251a0.335,0.335,0,0,1,.67,0v14.656A1.669,1.669,0,0,1,1478.82,630.565Zm1.35-15.983h-5.37a0.341,0.341,0,0,1-.34-0.331v-5.3a0.341,0.341,0,0,1,.34-0.332,0.335,0.335,0,0,1,.34.332v4.967h5.03A0.332,0.332,0,0,1,1480.17,614.582Zm0,0a0.321,0.321,0,0,1-.24-0.1l-5.37-5.443a0.322,0.322,0,0,1,.01-0.469,0.332,0.332,0,0,1,.47.007l5.37,5.443A0.333,0.333,0,0,1,1480.17,614.582Z" transform="translate(-1462.44 -608.469)"/>
</svg>
